:version 1.10
:name ASF
:units
  mass 1
  length 1
  angle deg
:documentation
  ASF file generated by Kaydara
:root
  axis xyz
  order  tx ty tz rx ry rz
  position 0 0 0
  orientation 0 0 0
:bonedata
  begin
    id 1
    name RightUpLegDummy
    direction -1 2.30186e-007 8.31532e-007
    length 4.04083
    axis 0 0 0 xyz
  end
  begin
    id 2
    name RightUpLeg
    direction -0.000919234 -0.999985 0.00544864
    length 17.4221
    axis -3.80308 -0.00076134 -0.0523649 xyz
    dof rx ry rz
  end
  begin
    id 3
    name RightLeg
    direction -0.000919271 -0.999984 -0.00555045
    length 17.1239
    axis 4.00314 0.0181274 -0.183583 xyz
    dof rx ry rz
  end
  begin
    id 4
    name RightFoot
    direction -2.57843e-005 -4.04509e-007 1
    length 6.72091
    axis 8.18909e-005 -0.122003 -0.403008 xyz
    dof rx ry rz
  end
  begin
    id 5
    name RightToes
    direction 0.00116825 -0.014069 0.9999
    length 3.85082
    axis 0.000514414 0.540638 -0.356797 xyz
    dof rx ry rz
  end
  begin
    id 6
    name SpineDummy
    direction 0.0168869 0.966876 -0.254689
    length 6.99894
    axis 0 0 0 xyz
  end
  begin
    id 7
    name Spine
    direction -0.0132008 0.999903 0.00446247
    length 11.1999
    axis -0.00148109 0.00725429 0.756411 xyz
    dof rx ry rz
  end
  begin
    id 8
    name Spine1
    direction 0 0 0
    length 0
    axis -0.000934958 0.0245693 1.46543 xyz
    dof rx ry rz
  end
  begin
    id 9
    name HEadDummy
    direction -0.0255732 0.999672 0.00128215
    length 3.43865
    axis -0.000934958 0.0245693 1.46543 xyz
  end
  begin
    id 10
    name HEad
    direction -0.0472656 0.980052 0.19304
    length 5.12695
    axis -0.000934954 0.0245693 1.46543 xyz
    dof rx ry rz
  end
  begin
    id 11
    name LeftShoulder1Dummy
    direction 0.953098 0.301717 -0.023914
    length 3.68488
    axis -0.000934958 0.0245693 1.46543 xyz
  end
  begin
    id 12
    name LeftShoulder1
    direction 0.962466 0.271167 0.0112566
    length 3.13809
    axis -0.000934958 0.0245693 1.46543 xyz
    dof rx ry rz
  end
  begin
    id 13
    name LeftArm
    direction 0.999943 0.00455037 -0.00961766
    length 11.3419
    axis -23.1648 0.685459 1.22814 xyz
    dof rx ry rz
  end
  begin
    id 14
    name LeftForeArm
    direction 0.999332 0.0131969 0.0340885
    length 8.70632
    axis -9.90633 0.618216 0.0826942 xyz
    dof rx ry rz
  end
  begin
    id 15
    name LeftHand
    direction 0.994373 -0.0366703 0.0993905
    length 5.32135
    axis 0.00675269 0.680415 0.445699 xyz
    dof rx ry rz
  end
  begin
    id 16
    name RightShoulderDummy
    direction -0.967298 0.252589 -0.0230903
    length 3.68488
    axis -0.000934958 0.0245693 1.46543 xyz
  end
  begin
    id 17
    name RightShoulder
    direction -0.975062 0.221602 0.0120823
    length 3.13809
    axis 0.216257 0.0246515 1.45863 xyz
    dof rx ry rz
  end
  begin
    id 18
    name RightArm
    direction -0.99886 -0.00851186 -0.0469687
    length 10.3947
    axis -23.196 0.23503 -0.532632 xyz
    dof rx ry rz
  end
  begin
    id 19
    name RightForeArm
    direction -0.99909 0.00114866 0.0426317
    length 8.68355
    axis -9.91764 -0.134943 0.610517 xyz
    dof rx ry rz
  end
  begin
    id 20
    name RightHand
    direction -0.992888 -0.0489538 0.10852
    length 5.28593
    axis -0.00275396 -0.197403 0.246414 xyz
    dof rx ry rz
  end
  begin
    id 21
    name LeftUpLegDummy
    direction 1 -2.30186e-007 -8.31532e-007
    length 4.04083
    axis 0 0 0 xyz
  end
  begin
    id 22
    name LeftUpLeg
    direction -0.000920097 -1 2.79241e-006
    length 17.4221
    axis -3.48782 0.00143434 -0.0532288 xyz
    dof rx ry rz
  end
  begin
    id 23
    name LeftLeg
    direction -0.000920097 -1 2.7912e-006
    length 17.1239
    axis 3.68162 -0.00806512 -0.0529896 xyz
    dof rx ry rz
  end
  begin
    id 24
    name LeftFoot
    direction -2.57845e-005 -3.987e-007 1
    length 6.72091
    axis 3.02372e-005 -0.00147829 -0.214229 xyz
    dof rx ry rz
  end
  begin
    id 25
    name LeftToes
    direction 0.00813577 -0.00488255 0.999955
    length 3.85048
    axis 3.89895e-005 -0.0014783 -0.214229 xyz
    dof rx ry rz
  end
:hierarchy
  begin
    root RightUpLegDummy SpineDummy LeftUpLegDummy
    RightUpLegDummy RightUpLeg
    RightUpLeg RightLeg
    RightLeg RightFoot
    RightFoot RightToes
    SpineDummy Spine
    Spine Spine1
    Spine1 HEadDummy LeftShoulder1Dummy RightShoulderDummy
    HEadDummy HEad
    LeftShoulder1Dummy LeftShoulder1
    LeftShoulder1 LeftArm
    LeftArm LeftForeArm
    LeftForeArm LeftHand
    RightShoulderDummy RightShoulder
    RightShoulder RightArm
    RightArm RightForeArm
    RightForeArm RightHand
    LeftUpLegDummy LeftUpLeg
    LeftUpLeg LeftLeg
    LeftLeg LeftFoot
    LeftFoot LeftToes
  end

:SAMPLES-PER-SECOND 30
:FULLY-SPECIFIED
:DEGREES
116
root  -15.7907 31.7235 -17.397 -173.65 7.7 -176.739
RightUpLeg  -23.6557 -2.07831 4.55618
RightLeg  47.5953 -0.0243845 -0.0650522
RightFoot  -18.619 -0.0471214 0.255181
RightToes  -12.3138 -0.0428786 -0.112338
Spine  -2.69443 0.370609 0.801019
Spine1  -5.47551 0.912168 2.22313
HEad  -66.5304 -0.0802152 8.25782
LeftShoulder1  -1.94126e-019 -3.10601e-018 -2.51263e-017
LeftArm  -80.5194 -23.9872 9.77136
LeftForeArm  134.471 -77.8042 -127.291
LeftHand  -1.05944 -0.648843 20.3825
RightShoulder  -4.96962e-017 0 -2.36833e-017
RightArm  -87.609 25.8494 -17.9731
RightForeArm  141.757 80.199 115.933
RightHand  0.215779 -6.68201 -20.3368
LeftUpLeg  -22.6241 3.18527 1.68417
LeftLeg  54.3848 8.08957 9.74603
LeftFoot  -19.674 -0.756499 -4.19927
LeftToes  -11.5786 1.70063e-006 7.6642e-008
117
root  -15.8896 31.4689 -17.1524 -173.465 8.03868 -176.971
RightUpLeg  -26.1487 -3.58964 4.26878
RightLeg  50.9625 0.751253 0.761669
RightFoot  -18.5563 -0.104414 -0.102747
RightToes  -12.7993 -0.0450566 -0.116559
Spine  -2.41436 0.25565 0.516528
Spine1  -4.93422 0.680266 1.66136
HEad  -70.3543 1.00461 8.00256
LeftShoulder1  -1.94126e-019 -3.10601e-018 -2.51263e-017
LeftArm  -80.3216 -20.5462 9.21943
LeftForeArm  150.986 -70.7992 -149.523
LeftHand  -1.25698 0.0409717 27.0555
RightShoulder  -4.96962e-017 0 -2.36833e-017
RightArm  -84.8041 22.0536 -11.7379
RightForeArm  168.451 69.2134 154.4
RightHand  0.968719 -9.55145 -26.7196
LeftUpLeg  -24.2452 4.00996 1.30412
LeftLeg  56.3019 7.62533 9.84199
LeftFoot  -20.1123 -0.776111 -4.21286
LeftToes  -12.3126 1.70063e-006 7.6642e-008
118
root  -16.0316 32.0599 -17.0564 -172.532 7.50331 -177.055
RightUpLeg  -24.588 -7.37562 3.80758
RightLeg  45.5301 3.56042 3.14773
RightFoot  -15.8881 -0.225363 -1.099
RightToes  -15.3753 -0.0572059 -0.138639
Spine  -2.80435 0.236374 0.267634
Spine1  -5.71848 0.626294 1.17795
HEad  -70.946 0.94978 7.22478
LeftShoulder1  -1.94126e-019 -3.10601e-018 -2.51263e-017
LeftArm  -79.4602 -21.7933 8.53646
LeftForeArm  169.193 -68.5045 -155.152
LeftHand  -1.68493 -1.10187 29.7727
RightShoulder  -4.96962e-017 0 -2.36833e-017
RightArm  -81.8646 21.6608 -9.0428
RightForeArm  -175.628 63.7389 161.602
RightHand  0.712337 -7.75202 -33.8246
LeftUpLeg  -23.6647 6.74913 1.25223
LeftLeg  51.9522 6.34429 7.05314
LeftFoot  -18.0272 -0.473656 -2.82376
LeftToes  -11.4243 1.70063e-006 7.6642e-008
119
root  -16.1727 33.3753 -17.1564 -172.198 7.25208 -177.257
RightUpLeg  -20.2902 -9.25958 3.04371
RightLeg  35.8714 6.29466 3.93178
RightFoot  -7.84149 -0.0932773 -0.857575
RightToes  -21.1303 -0.0878491 -0.185848
Spine  -3.22646 0.35022 -0.0980369
Spine1  -6.58318 0.856446 0.461615
HEad  -70.1898 0.592468 6.79919
LeftShoulder1  -1.94126e-019 -3.10601e-018 -2.51263e-017
LeftArm  -78.8071 -26.0347 9.96841
LeftForeArm  159.762 -73.5886 -145.716
LeftHand  -1.71569 -1.56462 28.3672
RightShoulder  -4.96962e-017 0 -2.36833e-017
RightArm  -79.7222 25.197 -9.87199
RightForeArm  -167.789 68.7604 157.733
RightHand  0.395986 -6.47841 -39.5203
LeftUpLeg  -20.4954 10.1566 1.54767
LeftLeg  43.8586 3.50575 2.94826
LeftFoot  -10.0937 -0.0717771 -0.651229
LeftToes  -18.8694 1.70063e-006 7.6642e-008
120
root  -16.3316 35.085 -17.2398 -171.805 7.52544 -177.774
RightUpLeg  -15.908 -9.90723 1.77099
RightLeg  25.0216 9.70488 3.7645
RightFoot  5.76842 -0.0349708 1.16791
RightToes  -31.491 -0.154322 -0.262194
Spine  -3.55418 0.540751 -0.568862
Spine1  -7.25147 1.24122 -0.475992
HEad  -70.4416 0.407389 6.86267
LeftShoulder1  -1.94126e-019 -3.10601e-018 -2.51263e-017
LeftArm  -80.0648 -30.7911 13.5127
LeftForeArm  101.694 -80.3425 -92.0471
LeftHand  -1.22534 -1.35133 21.1196
RightShoulder  -4.96962e-017 0 -2.36833e-017
RightArm  -81.6143 30.5883 -13.8762
RightForeArm  161.624 78.8004 130.228
RightHand  0.551506 -7.16167 -34.7453
LeftUpLeg  -17.512 14.8207 1.78553
LeftLeg  35.5686 -2.24949 -1.40444
LeftFoot  3.25894 0.00384181 0.0264577
LeftToes  -30.9718 1.70063e-006 7.6642e-008
121
root  -16.535 36.7993 -17.2124 -170.997 7.77484 -178.629
RightUpLeg  -13.0654 -11.0191 0.191214
RightLeg  15.0679 13.7815 2.74979
RightFoot  21.6893 -0.943625 5.38058
RightToes  -40.8873 -0.22561 -0.32008
Spine  -3.90447 0.583415 -1.12743
Spine1  -7.94249 1.30605 -1.59093
HEad  -70.4539 0.770245 6.81007
LeftShoulder1  -1.94126e-019 -3.10601e-018 -2.51263e-017
LeftArm  -82.642 -35.1008 19.3622
LeftForeArm  40.0108 -71.0702 -29.6651
LeftHand  -0.730697 -1.25605 12.9067
RightShoulder  -4.96962e-017 0 -2.36833e-017
RightArm  -87.9718 36.9073 -20.9444
RightForeArm  69.1355 75.9806 37.2247
RightHand  0.269784 -6.60885 -25.8538
LeftUpLeg  -15.0075 18.6062 1.97965
LeftLeg  27.1081 -10.7726 -4.63403
LeftFoot  18.7812 0.626447 -3.62512
LeftToes  -46.8329 1.70063e-006 7.6642e-008
122
root  -16.7979 38.0578 -17.0428 -169.796 7.32167 -178.955
RightUpLeg  -12.9132 -14.8827 -0.543632
RightLeg  9.60549 16.8799 1.73147
RightFoot  32.8294 -2.69934 9.58588
RightToes  -43.0442 -0.243247 -0.331665
Spine  -4.27851 0.513334 -1.25578
Spine1  -8.65404 1.17955 -1.88807
HEad  -71.0024 0.956565 6.22004
LeftShoulder1  -1.94126e-019 -3.10601e-018 -2.51263e-017
LeftArm  -86.0325 -39.4663 27.5128
LeftForeArm  28.1577 -52.8015 -12.5187
LeftHand  -0.588791 -2.20687 9.19771
RightShoulder  -4.96962e-017 0 -2.36833e-017
RightArm  -99.0765 41.8648 -33.9164
RightForeArm  47.3853 52.6035 10.7596
RightHand  -0.11528 -4.75097 -19.0608
LeftUpLeg  -14.2932 16.6922 2.66933
LeftLeg  21.7046 -13.6649 -4.39843
LeftFoot  27.2886 1.62123 -6.51017
LeftToes  -46.6228 1.70063e-006 7.6642e-008
123
root  -17.0596 38.912 -16.7889 -168.932 5.94438 -178.763
RightUpLeg  -12.9209 -15.4801 -0.977227
RightLeg  7.98957 12.0504 0.904293
RightFoot  33.7254 -1.97312 6.97225
RightToes  -40.6266 -0.223508 -0.318634
Spine  -4.37519 0.734201 -0.942586
Spine1  -8.86092 1.83282 -1.45912
HEad  -71.9992 0.291288 5.58046
LeftShoulder1  -1.94126e-019 -3.10601e-018 -2.51263e-017
LeftArm  -90.0394 -44.1112 35.8851
LeftForeArm  32.4709 -34.3137 -5.76524
LeftHand  -0.794415 -3.73108 10.3605
RightShoulder  -4.96962e-017 0 -2.36833e-017
RightArm  -111.668 42.6081 -50.9365
RightForeArm  47.0825 24.0129 2.67218
RightHand  -0.340487 -2.97382 -15.9689
LeftUpLeg  -14.2944 8.69068 4.3675
LeftLeg  19.8219 -4.95872 -1.43581
LeftFoot  26.9774 0.537059 -2.07719
LeftToes  -40.3742 1.70063e-006 7.6642e-008
124
root  -17.2613 39.445 -16.6446 -169.759 4.6582 -178.759
RightUpLeg  -10.7154 -14.1829 -2.2395
RightLeg  7.01456 6.38922 0.372855
RightFoot  31.8687 -0.88897 3.6137
RightToes  -35.6312 -0.184558 -0.289137
Spine  -3.77526 1.38759 -0.96194
Spine1  -7.73737 3.4683 -1.54313
HEad  -73.0531 -1.03961 5.79911
LeftShoulder1  -1.94126e-019 -3.10601e-018 -2.51263e-017
LeftArm  -105.38 -48.8064 42.131
LeftForeArm  50.1572 -22.2959 -4.03555
LeftHand  -1.04897 -5.14951 11.8271
RightShoulder  -4.96962e-017 0 -2.36833e-017
RightArm  -128.959 39.8866 -60.9461
RightForeArm  62.9822 8.44587 1.40823
RightHand  -0.442697 -2.0344 -15.1247
LeftUpLeg  -12.2323 3.00344 5.94856
LeftLeg  18.2314 1.64135 0.423298
LeftFoot  29.4211 -0.271456 1.19544
LeftToes  -32.2064 1.70063e-006 7.6642e-008
125
root  -17.5214 39.5112 -16.5247 -170.801 3.97943 -178.822
RightUpLeg  -9.01976 -14.3486 -3.42254
RightLeg  7.40323 4.37706 0.285671
RightFoot  33.6104 -0.652322 2.67165
RightToes  -34.0814 -0.173012 -0.279308
Spine  -3.36292 1.65852 -1.13781
Spine1  -6.99228 3.96784 -2.28185
HEad  -72.4454 -1.73389 7.386
LeftShoulder1  -1.94126e-019 -3.10601e-018 -2.51263e-017
LeftArm  -115.943 -51.421 44.5402
LeftForeArm  45.7866 -19.1634 -3.45679
LeftHand  -1.04736 -3.20097 14.3524
RightShoulder  -4.96962e-017 0 -2.36833e-017
RightArm  -138.987 38.0714 -62.1651
RightForeArm  68.6965 2.85968 0.450071
RightHand  0.12701 -6.41039 -16.2676
LeftUpLeg  -10.6858 1.19038 6.7318
LeftLeg  18.2925 4.82845 1.25435
LeftFoot  30.7986 -0.765317 2.93962
LeftToes  -27.3528 1.70063e-006 7.6642e-008
126
root  -17.7614 39.1066 -16.3578 -170.592 3.71465 -178.841
RightUpLeg  -10.2489 -14.1383 -4.12607
RightLeg  10.8293 6.74532 0.845284
RightFoot  33.9513 -1.07486 4.01888
RightToes  -35.6932 -0.185025 -0.289524
Spine  -3.62226 1.4531 -1.13358
Spine1  -7.4767 3.45317 -2.21303
HEad  -70.2503 -1.65365 8.0307
LeftShoulder1  -1.94126e-019 -3.10601e-018 -2.51263e-017
LeftArm  -112.816 -51.3311 39.4786
LeftForeArm  30.6075 -26.1908 -4.313
LeftHand  -0.855406 -2.84517 12.268
RightShoulder  -4.96962e-017 0 -2.36833e-017
RightArm  -142.956 39.2336 -59.9072
RightForeArm  60.3153 6.18679 1.05899
RightHand  0.222625 -7.01124 -17.0768
LeftUpLeg  -10.5947 2.21598 7.16097
LeftLeg  18.606 6.42486 1.70566
LeftFoot  30.2405 -0.960715 3.71604
LeftToes  -28.3466 1.70063e-006 7.6642e-008
127
root  -18.0223 38.2713 -16.1553 -169.961 3.61856 -178.916
RightUpLeg  -11.7364 -13.3331 -4.79824
RightLeg  13.7563 10.9087 1.92792
RightFoot  32.9184 -1.70169 6.23053
RightToes  -37.3369 -0.197566 -0.29959
Spine  -3.96802 0.97491 -0.969133
Spine1  -8.07628 2.34062 -1.73158
HEad  -68.1022 -1.16297 7.63365
LeftShoulder1  -1.94126e-019 -3.10601e-018 -2.51263e-017
LeftArm  -104.696 -48.1924 32.7434
LeftForeArm  27.9624 -37.4038 -6.83987
LeftHand  -0.738315 -2.87941 10.5861
RightShoulder  -4.96962e-017 0 -2.36833e-017
RightArm  -129.788 40.7729 -55.0691
RightForeArm  43.8658 15.9909 1.41542
RightHand  -0.12654 -4.36114 -12.7002
LeftUpLeg  -10.9066 3.28359 7.31348
LeftLeg  18.7114 7.54947 2.01768
LeftFoot  28.0787 -0.960421 4.00099
LeftToes  -25.0081 1.70063e-006 7.6642e-008
